<svg width="80" height="80" viewBox="0 0 80 80" fill="none" xmlns="http://www.w3.org/2000/svg">
  <rect width="80" height="80" rx="16" fill="#E6F7EF"/>
  <path d="M40 20C28.954 20 20 28.954 20 40C20 51.046 28.954 60 40 60C51.046 60 60 51.046 60 40C60 28.954 51.046 20 40 20ZM40 28C44.418 28 48 31.582 48 36C48 40.418 44.418 44 40 44C35.582 44 32 40.418 32 36C32 31.582 35.582 28 40 28ZM40 56C34.667 56 29.82 53.617 26.666 49.734C29.788 46.8 34.666 45 40 45C45.334 45 50.212 46.8 53.334 49.734C50.18 53.617 45.333 56 40 56Z" fill="#16A34A"/>
</svg>
